<svg width="12" height="12" viewBox="0 0 12 12" fill="none" xmlns="http://www.w3.org/2000/svg">
<g id="XMLID_13_">
<path id="XMLID_17_" d="M8.42513 0H3.57486C1.60368 0 0 1.60368 0 3.57486V8.42513C0 10.3963 1.60368 12 3.57486 12H8.42513C10.3963 12 12 10.3963 12 8.42513V3.57486C12 1.60368 10.3963 0 8.42513 0ZM10.7928 8.42513C10.7928 9.73275 9.73275 10.7928 8.42513 10.7928H3.57486C2.26725 10.7928 1.2072 9.73275 1.2072 8.42513V3.57486C1.2072 2.26723 2.26725 1.2072 3.57486 1.2072H8.42513C9.73275 1.2072 10.7928 2.26723 10.7928 3.57486V8.42513Z" fill="url(#paint0_linear_140_320)"/>
<path id="XMLID_81_" d="M6.00011 2.89637C4.28877 2.89637 2.89648 4.28865 2.89648 5.99997C2.89648 7.7113 4.28877 9.1036 6.00011 9.1036C7.71145 9.1036 9.10374 7.71132 9.10374 5.99997C9.10374 4.28863 7.71145 2.89637 6.00011 2.89637ZM6.00011 7.89642C4.95273 7.89642 4.10368 7.04737 4.10368 6C4.10368 4.95262 4.95276 4.10357 6.00011 4.10357C7.04749 4.10357 7.89654 4.95262 7.89654 6C7.89654 7.04735 7.04747 7.89642 6.00011 7.89642Z" fill="url(#paint1_linear_140_320)"/>
<path id="XMLID_83_" d="M9.10964 3.66339C9.52036 3.66339 9.85331 3.33044 9.85331 2.91972C9.85331 2.509 9.52036 2.17605 9.10964 2.17605C8.69892 2.17605 8.36597 2.509 8.36597 2.91972C8.36597 3.33044 8.69892 3.66339 9.10964 3.66339Z" fill="url(#paint2_linear_140_320)"/>
</g>
<defs>
<linearGradient id="paint0_linear_140_320" x1="6" y1="0" x2="6" y2="12" gradientUnits="userSpaceOnUse">
<stop stop-color="#FF9900"/>
<stop offset="1" stop-color="#FF00B8"/>
</linearGradient>
<linearGradient id="paint1_linear_140_320" x1="6.00011" y1="2.89637" x2="6.00011" y2="9.1036" gradientUnits="userSpaceOnUse">
<stop stop-color="#FF9900"/>
<stop offset="1" stop-color="#FF00B8"/>
</linearGradient>
<linearGradient id="paint2_linear_140_320" x1="9.10964" y1="2.17605" x2="9.10964" y2="3.66339" gradientUnits="userSpaceOnUse">
<stop stop-color="#FF9900"/>
<stop offset="1" stop-color="#FF00B8"/>
</linearGradient>
</defs>
</svg>
