<svg width="18" height="18" viewBox="0 0 18 18" fill="none" xmlns="http://www.w3.org/2000/svg">
<path d="M14.0257 12.8473L17.5948 16.4157L16.4157 17.5948L12.8473 14.0257C11.5196 15.09 9.86817 15.6689 8.1665 15.6665C4.0265 15.6665 0.666504 12.3065 0.666504 8.1665C0.666504 4.0265 4.0265 0.666504 8.1665 0.666504C12.3065 0.666504 15.6665 4.0265 15.6665 8.1665C15.6689 9.86817 15.09 11.5196 14.0257 12.8473ZM12.354 12.229C13.4116 11.1414 14.0022 9.68353 13.9998 8.1665C13.9998 4.94317 11.389 2.33317 8.1665 2.33317C4.94317 2.33317 2.33317 4.94317 2.33317 8.1665C2.33317 11.389 4.94317 13.9998 8.1665 13.9998C9.68353 14.0022 11.1414 13.4116 12.229 12.354L12.354 12.229V12.229Z" fill="#292929" fill-opacity="0.5"/>
</svg>
